<?xml version="1.0" encoding="UTF-8"?>
<svg version="1.1" xmlns="http://www.w3.org/2000/svg" width="181" height="179">
<path d="M0 0 C59.73 0 119.46 0 181 0 C181 59.07 181 118.14 181 179 C121.27 179 61.54 179 0 179 C0 119.93 0 60.86 0 0 Z " fill="#0173C5" transform="translate(0,0)"/>
<path d="M0 0 C4.72375084 3.63891114 8.36837459 7.46584228 10 13.3125 C10.97667549 20.84685378 8.18799395 27.2927318 5.70117188 34.29492188 C4.57792553 37.52699285 3.56950281 40.79269785 2.5625 44.0625 C1.26105729 48.27106148 -0.04782952 52.47613301 -1.40234375 56.66796875 C-4.70171543 66.91280491 -7.71114688 77.21560885 -10.55224609 87.59741211 C-15.15410579 104.3367104 -15.15410579 104.3367104 -18 109.3125 C-20.30298656 110.46399328 -21.58996098 110.43586988 -24.15078735 110.43275452 C-25.02019455 110.43412918 -25.88960175 110.43550385 -26.78535461 110.43692017 C-28.21925789 110.43152725 -28.21925789 110.43152725 -29.68212891 110.42602539 C-31.18949364 110.42624443 -31.18949364 110.42624443 -32.72731018 110.4264679 C-36.06041598 110.42576929 -39.39346642 110.41797933 -42.7265625 110.41015625 C-45.03298919 110.40829188 -47.33941628 110.40686807 -49.64584351 110.40586853 C-55.72531217 110.40204482 -61.80475706 110.39221576 -67.88421631 110.38116455 C-74.08426593 110.3709473 -80.28431939 110.36637024 -86.484375 110.36132812 C-98.65626046 110.35059338 -110.82812826 110.33351869 -123 110.3125 C-126.31115137 102.64291843 -126.31115137 102.64291843 -127.39453125 99.10546875 C-127.62470947 98.36312988 -127.8548877 97.62079102 -128.09204102 96.85595703 C-128.32979248 96.07849121 -128.56754395 95.30102539 -128.8125 94.5 C-129.33745999 92.81346501 -129.86352991 91.12727517 -130.390625 89.44140625 C-130.65681641 88.58949707 -130.92300781 87.73758789 -131.19726562 86.85986328 C-132.45303735 82.87485045 -133.7481504 78.90354033 -135.0625 74.9375 C-135.30798584 74.19411377 -135.55347168 73.45072754 -135.80639648 72.68481445 C-137.33804781 68.10915209 -139.04857107 63.65324735 -140.875 59.1875 C-142.83087722 54.25718969 -143.51661029 50.58192495 -143 45.3125 C-143.66 45.3125 -144.32 45.3125 -145 45.3125 C-146.16461426 41.81865721 -146.13568319 38.97594611 -146 35.3125 C-145 34.3125 -145 34.3125 -142.69052029 34.18945217 C-141.14329076 34.19083486 -141.14329076 34.19083486 -139.56480408 34.19224548 C-138.38544785 34.19087082 -137.20609161 34.18949615 -135.99099731 34.18807983 C-134.03273514 34.19347275 -134.03273514 34.19347275 -132.03491211 34.19897461 C-130.65547182 34.19925648 -129.27603139 34.19909875 -127.89659119 34.1985321 C-124.14055882 34.19824412 -120.38455811 34.20414095 -116.62853312 34.21110606 C-112.70739955 34.21733949 -108.78626533 34.21794339 -104.86512756 34.21913147 C-97.43488389 34.22224482 -90.00465486 34.23045825 -82.57441765 34.24048096 C-74.11748362 34.25164199 -65.6605489 34.25715252 -57.20360935 34.26217639 C-39.80239775 34.27264086 -22.40120042 34.29024037 -5 34.3125 C-4.80301514 33.3836499 -4.80301514 33.3836499 -4.60205078 32.43603516 C-4.42657715 31.62440918 -4.25110352 30.8127832 -4.0703125 29.9765625 C-3.89773926 29.1717041 -3.72516602 28.3668457 -3.54736328 27.53759766 C-3 25.3125 -3 25.3125 -1.875 22.6875 C-0.63864955 19.33169164 -0.55663933 16.85938535 -1 13.3125 C-2.44722123 10.0274703 -2.44722123 10.0274703 -6 8.3125 C-12.02423557 8.03511489 -18.77252448 7.9484069 -24 11.3125 C-25.14209817 13.09478936 -25.14209817 13.09478936 -26 15.3125 C-26.495 16.281875 -26.99 17.25125 -27.5 18.25 C-29.01129625 21.22360732 -29.01129625 21.22360732 -30.0625 24.0625 C-31 26.3125 -31 26.3125 -33 28.3125 C-36.125 28.4375 -36.125 28.4375 -39 28.3125 C-40.89447457 24.52355086 -39.91924114 20.32268946 -39 16.3125 C-35.4388314 8.67082572 -29.00164009 1.83268178 -21.25 -1.625 C-13.97262336 -3.88398921 -6.54553998 -4.18396954 0 0 Z " fill="#E6CCF5" transform="translate(161,11.6875)"/>
<path d="M0 0 C40.26 0 80.52 0 122 0 C122 8.93564356 122 8.93564356 120.625 11.9375 C118.58751912 16.71481299 118.58751912 16.71481299 117 25 C113.7 34.57 110.4 44.14 107 54 C76.64 54 46.28 54 15 54 C9 36 9 36 9 29 C13.76881876 28.90099865 18.5370373 28.82847072 23.30664062 28.78027344 C24.92849143 28.76017856 26.55026997 28.73289746 28.171875 28.69824219 C30.5053898 28.6496273 32.83794557 28.62701111 35.171875 28.609375 C35.89493835 28.58872986 36.61800171 28.56808472 37.36297607 28.54681396 C40.84628468 28.54526725 42.64786839 28.72327707 45.42602539 30.90649414 C46.87087667 32.82825616 47.84683032 34.44733397 48.6875 36.6875 C49.66691506 39.79921877 49.66691506 39.79921877 51 41 C53.33297433 41.04092937 55.66705225 41.04241723 58 41 C58.28948647 35.40326161 58.23291136 31.7972233 55 27 C50.64035585 22.59823369 46.29870916 18.80314005 39.87402344 18.68115234 C38.67323151 18.65134781 38.67323151 18.65134781 37.44818115 18.62094116 C36.59387512 18.60938995 35.73956909 18.59783875 34.859375 18.5859375 C33.97719299 18.56657135 33.09501099 18.5472052 32.18609619 18.5272522 C29.37416184 18.46757152 26.5621863 18.42111717 23.75 18.375 C21.84112819 18.33680962 19.93227341 18.29775727 18.0234375 18.2578125 C13.34909704 18.16187942 8.67467591 18.07780584 4 18 C3.67 16.02 3.34 14.04 3 12 C2.34 12 1.68 12 1 12 C-0.40876405 7.77370786 0 4.89096249 0 0 Z " fill="#0373C4" transform="translate(29,58)"/>
<path d="M0 0 C1.31070465 0.00303635 1.31070465 0.00303635 2.64788818 0.00613403 C3.56326355 0.00438171 4.47863892 0.00262939 5.42175293 0.00082397 C8.46329617 -0.00359604 11.5047818 -0.00065603 14.54632568 0.00271606 C16.65000418 0.00204307 18.75368261 0.00107308 20.85736084 -0.00018311 C25.27257017 -0.00166028 29.68775932 0.00049511 34.10296631 0.00515747 C39.77625129 0.01085477 45.44948897 0.00757587 51.12277222 0.00158501 C55.46861124 -0.00202007 59.81443896 -0.00088226 64.16027832 0.0017128 C66.25276698 0.00238222 68.34525666 0.00155314 70.43774414 -0.00076675 C73.35677834 -0.00329241 76.27573481 0.00054609 79.19476318 0.00613403 C80.06856628 0.0041098 80.94236938 0.00208557 81.84265137 0 C87.80706333 0.02126621 87.80706333 0.02126621 88.92132568 1.13552856 C89.17132568 4.07302856 89.17132568 4.07302856 88.92132568 7.13552856 C85.92132568 9.13552856 85.92132568 9.13552856 82.92132568 9.13552856 C83.91132568 10.24927856 83.91132568 10.24927856 84.92132568 11.38552856 C88.08245784 16.17271071 87.89256166 21.64657374 86.92132568 27.13552856 C84.36666057 32.12237484 80.20965384 35.37275251 74.92132568 37.13552856 C70.66552129 37.98351938 67.41420068 38.08412622 63.67132568 35.70584106 C55.32758521 28.55844573 55.32758521 28.55844573 54.48773193 23.54959106 C54.48644287 22.62920044 54.48515381 21.70880981 54.48382568 20.76052856 C54.46448975 19.84529419 54.44515381 18.93005981 54.42523193 17.98709106 C54.92132568 15.13552856 54.92132568 15.13552856 58.92132568 9.13552856 C47.37132568 9.13552856 35.82132568 9.13552856 23.92132568 9.13552856 C24.91132568 10.62052856 24.91132568 10.62052856 25.92132568 12.13552856 C26.54632568 14.26052856 26.54632568 14.26052856 26.92132568 17.13552856 C27.010271 17.80970825 27.09921631 18.48388794 27.19085693 19.17849731 C27.61373436 24.89225978 26.3332872 28.11578692 22.62835693 32.47146606 C19.17709077 35.83585825 16.22979123 36.99278687 11.48382568 37.51052856 C6.14552141 36.9486018 2.34218403 35.63319007 -1.39117432 31.69802856 C-4.86578373 26.42176982 -5.99061162 22.45546615 -5.07867432 16.13552856 C-3.98181559 13.52214342 -2.68634527 11.49679527 -1.07867432 9.13552856 C-1.88304932 8.99115356 -2.68742432 8.84677856 -3.51617432 8.69802856 C-6.07867432 8.13552856 -6.07867432 8.13552856 -7.07867432 7.13552856 C-7.20367432 4.13552856 -7.20367432 4.13552856 -7.07867432 1.13552856 C-5.20308632 -0.74005943 -2.49578714 0.00889877 0 0 Z " fill="#E7CCF5" transform="translate(49.07867431640625,127.86447143554688)"/>
<path d="M0 0 C43.56 0 87.12 0 132 0 C132 4.04549192 131.86823113 6.06243496 130.625 9.6875 C130.36976563 10.45449219 130.11453125 11.22148438 129.8515625 12.01171875 C129 14 129 14 127 16 C127 14.68 127 13.36 127 12 C86.74 12 46.48 12 5 12 C4.67 13.32 4.34 14.64 4 16 C2.66666667 10.66666667 1.33333333 5.33333333 0 0 Z " fill="#7AA5E9" transform="translate(24,46)"/>
<path d="M0 0 C4.72375084 3.63891114 8.36837459 7.46584228 10 13.3125 C10.97667549 20.84685378 8.18799395 27.2927318 5.70117188 34.29492188 C4.5779217 37.52700387 3.56976472 40.79277002 2.5625 44.0625 C2.14870294 45.39721774 1.73463456 46.73185139 1.3203125 48.06640625 C1.00175293 49.09338623 1.00175293 49.09338623 0.67675781 50.14111328 C-0.80804679 54.90512921 -2.31884625 59.66104709 -3.83081055 64.41650391 C-4.98607935 68.05914867 -6.12524306 71.70357135 -7.19921875 75.37109375 C-7.71935547 77.13646484 -7.71935547 77.13646484 -8.25 78.9375 C-8.54390625 79.96101563 -8.8378125 80.98453125 -9.140625 82.0390625 C-10 84.3125 -10 84.3125 -12 85.3125 C-12 84.6525 -12 83.9925 -12 83.3125 C-13.485 83.8075 -13.485 83.8075 -15 84.3125 C-15.93423645 81.30218256 -16.04449911 80.44599732 -15 77.3125 C-14.98061489 75.95831183 -15.00601649 74.60314855 -15.0625 73.25 C-15.12791443 65.16477694 -13.11976235 58.15224968 -10.01171875 50.74609375 C-7.43044045 44.53707297 -5.74744813 38.39812747 -4.5390625 31.79296875 C-3.99839011 29.30509217 -3.2437182 27.01600477 -2.375 24.625 C-1.0291267 20.69144247 -0.3555851 17.50119685 -1 13.3125 C-2.44722123 10.0274703 -2.44722123 10.0274703 -6 8.3125 C-12.02423557 8.03511489 -18.77252448 7.9484069 -24 11.3125 C-25.14209817 13.09478936 -25.14209817 13.09478936 -26 15.3125 C-26.495 16.281875 -26.99 17.25125 -27.5 18.25 C-29.01129625 21.22360732 -29.01129625 21.22360732 -30.0625 24.0625 C-31 26.3125 -31 26.3125 -33 28.3125 C-36.125 28.4375 -36.125 28.4375 -39 28.3125 C-40.89447457 24.52355086 -39.91924114 20.32268946 -39 16.3125 C-35.4388314 8.67082572 -29.00164009 1.83268178 -21.25 -1.625 C-13.97262336 -3.88398921 -6.54553998 -4.18396954 0 0 Z " fill="#E8CEF6" transform="translate(161,11.6875)"/>
<path d="M0 0 C4.04165741 0.37422754 5.54069452 1.47819452 8.375 4.3125 C9.375 6.3125 9.375 6.3125 9.375 13.3125 C6.9 20.2425 6.9 20.2425 4.375 27.3125 C-41.165 27.3125 -86.705 27.3125 -133.625 27.3125 C-133.625 26.9825 -133.625 26.6525 -133.625 26.3125 C-133.08054796 26.30918985 -132.53609592 26.30587971 -131.97514534 26.30246925 C-118.73886221 26.22131505 -105.50269583 26.1291214 -92.26657295 26.02497292 C-85.86572579 25.97494355 -79.46489568 25.92861423 -73.06396484 25.890625 C-66.89123902 25.85385595 -60.71865355 25.80751916 -54.54604721 25.75443649 C-52.18646573 25.73584786 -49.82685412 25.72075659 -47.46722794 25.70915604 C-44.17217768 25.6923699 -40.87745204 25.66335365 -37.58251953 25.63134766 C-36.5985318 25.62918747 -35.61454407 25.62702728 -34.60073853 25.62480164 C-33.25876404 25.60805641 -33.25876404 25.60805641 -31.88967896 25.5909729 C-31.10984209 25.58544214 -30.33000523 25.57991138 -29.52653694 25.57421303 C-27.38420869 25.47443622 -27.38420869 25.47443622 -25.625 23.3125 C-26.429375 23.18875 -27.23375 23.065 -28.0625 22.9375 C-29.3309375 22.628125 -29.3309375 22.628125 -30.625 22.3125 C-31.97939668 19.60370665 -31.69001451 17.30316732 -31.625 14.3125 C-31.295 14.3125 -30.965 14.3125 -30.625 14.3125 C-30.13 17.7775 -30.13 17.7775 -29.625 21.3125 C-25.89883849 20.88536676 -25.89883849 20.88536676 -22.625 19.3125 C-21.26593923 16.86968659 -20.41537105 14.43464898 -19.51953125 11.7890625 C-17.8736281 7.23228259 -14.81577065 3.70722609 -10.625 1.3125 C-7.07836121 0.57640516 -3.60625159 0.31088376 0 0 Z " fill="#1078C8" transform="translate(151.625,18.6875)"/>
<path d="M0 0 C4.95 0.33 9.9 0.66 15 1 C15.66 2.65 16.32 4.3 17 6 C16.67 6.66 16.34 7.32 16 8 C16.66 8.33 17.32 8.66 18 9 C17.34 9.66 16.68 10.32 16 11 C13.875 10.625 13.875 10.625 12 10 C12.33 9.67 12.66 9.34 13 9 C12.34 8.67 11.68 8.34 11 8 C11 8.66 11 9.32 11 10 C9.39125 10.12375 9.39125 10.12375 7.75 10.25 C3.6683333 11.06633334 2.30824813 11.58379277 0 15 C-0.48288863 18.31123632 -0.29618989 20.296549 1 23.375 C3.69660397 25.56599072 5.67355035 25.44001222 9.0625 25.43359375 C11.59346129 24.86718911 12.4805608 24.09097138 14 22 C14.39586752 19.66229812 14.43776742 17.42664267 14.49609375 15.05859375 C15 13 15 13 16.78515625 11.59765625 C19 11 19 11 21.25 11.875 C21.8275 12.24625 22.405 12.6175 23 13 C24.03239711 24.64314516 24.03239711 24.64314516 20.375 29.0625 C16.27434989 32.98153624 12.31196978 35.10800275 6.625 35.625 C1.70235123 35.47532487 -0.82411566 33.24344418 -4.2734375 29.921875 C-8.68598018 25.0101759 -9.52197848 22.33708382 -9.37109375 15.70703125 C-8.84106056 11.84057864 -7.52628545 9.92101755 -5 7 C-6.21623047 7.01740234 -6.21623047 7.01740234 -7.45703125 7.03515625 C-14.70566174 7.09422542 -21.79632201 6.80842879 -29 6 C-28.67 5.01 -28.34 4.02 -28 3 C-22.72 3 -17.44 3 -12 3 C-12 3.66 -12 4.32 -12 5 C-10.37247769 4.74476126 -8.74796804 4.47025506 -7.125 4.1875 C-5.76761719 3.96126953 -5.76761719 3.96126953 -4.3828125 3.73046875 C-1.65587522 3.16948699 -1.65587522 3.16948699 0 0 Z " fill="#E8CDF5" transform="translate(113,130)"/>
<path d="M0 0 C2 3 2 3 2 6 C3.1645874 5.9685791 4.3291748 5.9371582 5.52905273 5.90478516 C9.88423576 5.79550138 14.23929976 5.72705722 18.59545898 5.67041016 C20.4742476 5.64039086 22.35289789 5.59956117 24.23120117 5.54736328 C43.10485458 5.03631665 43.10485458 5.03631665 49.51611328 10.49926758 C50.0057959 10.99450928 50.49547852 11.48975098 51 12 C51.804375 12.680625 52.60875 13.36125 53.4375 14.0625 C56.04022674 17.28988116 56.90167103 20.01671028 57.3125 24.125 C57 27 57 27 55.8125 28.875 C53.27353509 30.45090926 51.93597381 30.57287294 49 30 C45.96687467 26.96687467 44.49966944 23.96341209 43 20 C40.13231454 17.13231454 37.21347695 17.64651855 33.3671875 17.5859375 C32.61535187 17.56657135 31.86351624 17.5472052 31.08889771 17.5272522 C28.68438101 17.46740853 26.27981656 17.42105274 23.875 17.375 C22.24607272 17.33682454 20.61716572 17.29777307 18.98828125 17.2578125 C14.99235194 17.16170334 10.99632813 17.07769059 7 17 C7 18.65 7 20.3 7 22 C2.43778754 15.15668132 0.52515491 8.13990105 0 0 Z " fill="#7EA7EA" transform="translate(31,70)"/>
<path d="M0 0 C2.05078125 0.03255208 4.1015625 0.06510417 6.15234375 0.09765625 C8.62548654 4.36944834 9.68794457 8.2146574 10.5625 12.9921875 C12.33096539 22.30298211 14.23072416 31.63187177 18.00390625 40.35546875 C19.60580392 44.18040809 21.00567593 48.06887539 22.40234375 51.97265625 C22.80815674 53.08060547 22.80815674 53.08060547 23.22216797 54.2109375 C24.47635505 57.73202936 25.15234375 60.31779659 25.15234375 64.09765625 C23.17234375 64.59265625 23.17234375 64.59265625 21.15234375 65.09765625 C19.8892904 60.02288831 18.88198291 55.36969271 19.15234375 50.09765625 C17.73857034 52.73669996 16.7799424 55.16886254 16.15234375 58.09765625 C16.81234375 58.09765625 17.47234375 58.09765625 18.15234375 58.09765625 C18.15234375 58.75765625 18.15234375 59.41765625 18.15234375 60.09765625 C17.49234375 60.09765625 16.83234375 60.09765625 16.15234375 60.09765625 C16.15234375 60.75765625 16.15234375 61.41765625 16.15234375 62.09765625 C16.81234375 62.42765625 17.47234375 62.75765625 18.15234375 63.09765625 C17.49234375 64.08765625 16.83234375 65.07765625 16.15234375 66.09765625 C15.95600342 65.44804932 15.75966309 64.79844238 15.55737305 64.12915039 C14.65283256 61.13908986 13.74635024 58.1496213 12.83984375 55.16015625 C12.53111328 54.13857422 12.22238281 53.11699219 11.90429688 52.06445312 C9.06950711 42.72456686 6.13606394 33.60480316 2.13867188 24.69335938 C0.11439855 19.88888108 -0.10169471 16.20665196 0.15234375 11.09765625 C-0.50765625 11.09765625 -1.16765625 11.09765625 -1.84765625 11.09765625 C-3.01227051 7.60381346 -2.98333944 4.76110236 -2.84765625 1.09765625 C-1.84765625 0.09765625 -1.84765625 0.09765625 0 0 Z " fill="#ECCEF7" transform="translate(17.84765625,45.90234375)"/>
<path d="M0 0 C1.18154663 -0.00430527 1.18154663 -0.00430527 2.38696289 -0.00869751 C4.05127685 -0.01073772 5.71561481 -0.00521082 7.37988281 0.00732422 C9.92827947 0.02337941 12.47509021 0.00747506 15.0234375 -0.01171875 C16.6406285 -0.00973631 18.25781852 -0.00589261 19.875 0 C20.63756104 -0.00607269 21.40012207 -0.01214539 22.18579102 -0.0184021 C27.40818256 0.05107293 27.40818256 0.05107293 29.921875 1.70068359 C31.62932243 4.55491183 31.23049566 7.17548526 30.9375 10.3984375 C28.37177253 12.96416497 26.64605529 12.65634492 23.1466217 12.70198059 C21.96222755 12.70061348 21.96222755 12.70061348 20.75390625 12.69921875 C19.9425975 12.70350388 19.13128876 12.707789 18.2953949 12.71220398 C16.57804295 12.7179515 14.86066665 12.71844444 13.14331055 12.71411133 C10.5137378 12.710954 7.88529269 12.73439498 5.25585938 12.75976562 C3.58854309 12.76203882 1.92122377 12.76274202 0.25390625 12.76171875 C-0.53366562 12.7709285 -1.32123749 12.78013824 -2.13267517 12.78962708 C-7.54629116 12.74369201 -7.54629116 12.74369201 -10.05883789 11.06323242 C-11.64575039 8.43098812 -11.43677946 6.39267315 -11.0625 3.3984375 C-8.53513407 -0.72305723 -4.32407846 -0.03443501 0 0 Z " fill="#82A9EC" transform="translate(104.0625,72.6015625)"/>
<path d="M0 0 C12.23880329 -0.02312166 24.47760143 -0.04091418 36.71642208 -0.05181217 C42.39876512 -0.05704139 48.08109327 -0.06413973 53.76342773 -0.07543945 C59.24229136 -0.08626696 64.72114062 -0.09227654 70.20001411 -0.09487724 C72.29529611 -0.09673174 74.39057728 -0.10035282 76.4858532 -0.10573006 C79.40977584 -0.11293868 82.33363833 -0.11399102 85.25756836 -0.11352539 C86.57062958 -0.1189183 86.57062958 -0.1189183 87.91021729 -0.12442017 C93.88594784 -0.11405216 93.88594784 -0.11405216 95 1 C95.25 3.9375 95.25 3.9375 95 7 C92 9 92 9 89 9 C89.99 10.65 90.98 12.3 92 14 C91.195625 13.979375 90.39125 13.95875 89.5625 13.9375 C87.06645115 13.70366379 87.06645115 13.70366379 86 15 C85.86898863 16.43530239 85.76992531 17.87358964 85.6875 19.3125 C85.3550934 22.38237275 85.07264906 23.88085553 83.4375 26.5625 C79.94846219 28.62013769 76.94559884 28.92980301 73 28 C70.00902696 25.45767292 69.15797443 23.8425303 68.4375 20 C69.21301416 15.86392446 70.61322911 14.45000447 74 12 C77.8125 11.6875 77.8125 11.6875 81 12 C81 11.34 81 10.68 81 10 C81.99 10.33 82.98 10.66 84 11 C84.99 11 85.98 11 87 11 C86.505 9.576875 86.505 9.576875 86 8.125 C85 5 85 5 85 3 C67.63799211 1.99065294 50.27557429 1.70315293 32.89007568 1.46777344 C29.16821633 1.41661811 25.44641663 1.36143421 21.72460938 1.30664062 C14.48312407 1.20059735 7.24158756 1.09884264 0 1 C0 0.67 0 0.34 0 0 Z " fill="#BABCEE" transform="translate(43,128)"/>
<path d="M0 0 C34.98 0 69.96 0 106 0 C105 2 105 2 103 3 C102.7715451 5.24362573 102.7715451 5.24362573 105 7.125 C105.99 8.053125 105.99 8.053125 107 9 C106.34 9.33 105.68 9.66 105 10 C104.34 10.99 103.68 11.98 103 13 C102.68248779 12.18958252 102.36497559 11.37916504 102.0378418 10.54418945 C100.13058714 7.58680882 100.13058714 7.58680882 96.17114258 7.34057617 C94.57939051 7.29946586 92.9867956 7.28529232 91.39453125 7.29296875 C90.55532639 7.27784744 89.71612152 7.26272614 88.85148621 7.24714661 C86.17155307 7.20416453 83.49274392 7.1954219 80.8125 7.1875 C78.99541261 7.16436373 77.1783521 7.1390002 75.36132812 7.11132812 C70.90745228 7.04837242 66.4542817 7.01611923 62 7 C62 6.67 62 6.34 62 6 C67.20173095 5.13190561 72.16978816 4.87484652 77.4375 4.9375 C78.16904297 4.94201172 78.90058594 4.94652344 79.65429688 4.95117188 C81.43623419 4.96281852 83.21812863 4.98074809 85 5 C85 4.34 85 3.68 85 3 C56.95 2.67 28.9 2.34 0 2 C0 1.34 0 0.68 0 0 Z " fill="#167BC8" transform="translate(37,121)"/>
<path d="M0 0 C3.01225915 3.01225915 2.94325901 5.35315267 3.3125 9.5625 C3 13 3 13 1.375 14.9375 C-1.74047223 16.33126389 -3.60915416 16.47471842 -7 16 C-10.375 14.4375 -10.375 14.4375 -13 12 C-13.6875 8.5625 -13.6875 8.5625 -13 5 C-9.26972266 -0.47884485 -6.1744994 -0.70854911 0 0 Z " fill="#1378C7" transform="translate(65,140)"/>
<path d="M0 0 C3.8425303 0.72047443 5.45767292 1.57152696 8 4.5625 C8.94237143 8.56143269 8.61136591 11.54355682 6.5 15.0625 C2.98105682 17.17386591 -0.00106731 17.50487143 -4 16.5625 C-6.99097304 14.02017292 -7.84202557 12.4050303 -8.5625 8.5625 C-7.62098494 3.54108633 -5.02141367 0.94151506 0 0 Z " fill="#0774C5" transform="translate(120,139.4375)"/>
<path d="M0 0 C2.05078125 0.03255208 4.1015625 0.06510417 6.15234375 0.09765625 C8.80199364 4.62414147 9.65676828 7.85164111 9.15234375 13.09765625 C8.49234375 13.75765625 7.83234375 14.41765625 7.15234375 15.09765625 C7.15234375 16.08765625 7.15234375 17.07765625 7.15234375 18.09765625 C6.49234375 18.09765625 5.83234375 18.09765625 5.15234375 18.09765625 C5.35859375 19.00515625 5.56484375 19.91265625 5.77734375 20.84765625 C6.17720552 24.31312488 5.8070967 25.19236481 4.15234375 28.09765625 C1.07525571 22.16327217 -0.335021 17.79892161 0.15234375 11.09765625 C-0.50765625 11.09765625 -1.16765625 11.09765625 -1.84765625 11.09765625 C-3.01227051 7.60381346 -2.98333944 4.76110236 -2.84765625 1.09765625 C-1.84765625 0.09765625 -1.84765625 0.09765625 0 0 Z " fill="#E8CEF5" transform="translate(17.84765625,45.90234375)"/>
<path d="M0 0 C0.6875 1.5625 0.6875 1.5625 1 4 C0.01 6.31 -0.98 8.62 -2 11 C-32.03 10.67 -62.06 10.34 -93 10 C-93.33 9.34 -93.66 8.68 -94 8 C-63.64 8 -33.28 8 -2 8 C-1.67 6.02 -1.34 4.04 -1 2 C-0.67 1.34 -0.34 0.68 0 0 Z " fill="#A0B1E9" transform="translate(138,104)"/>
<path d="M0 0 C2.75 -0.375 2.75 -0.375 6 0 C10.41292979 5.36707677 11.57250352 10.15658586 11 17 C10 20 10 20 9 22 C6.8480563 18.77208445 6.79913557 17.71599191 7 14 C5.68 13.34 4.36 12.68 3 12 C3 15.96 3 19.92 3 24 C2.34 24 1.68 24 1 24 C0.67 23.34 0.34 22.68 0 22 C-0.66 22.33 -1.32 22.66 -2 23 C-1.67 21.989375 -1.34 20.97875 -1 19.9375 C0.04543382 16.16020263 0.51023313 12.93608411 0 9 C-1.66178189 5.83651599 -1.66178189 5.83651599 -5 4 C-8.70558872 3.59405067 -12.2888722 3.70752933 -16 4 C-14 2 -14 2 -10.7421875 1.8046875 C-9.46601563 1.82789062 -8.18984375 1.85109375 -6.875 1.875 C-4.95300781 1.90207031 -4.95300781 1.90207031 -2.9921875 1.9296875 C-1.51105469 1.96449219 -1.51105469 1.96449219 0 2 C0 1.34 0 0.68 0 0 Z " fill="#DAC8F4" transform="translate(160,16)"/>
<path d="M0 0 C0.98120464 3.05263664 0.98120464 4.94736336 0 8 C0.99 8.33 1.98 8.66 3 9 C3.6875 11.0625 3.6875 11.0625 4 13 C4 12.01 4 11.02 4 10 C6.5483674 10.4247279 8.65971725 10.81339333 10.9375 12.0625 C13.75226027 13.34193649 15.94293593 13.26017567 19 13 C19.99 12.34 20.98 11.68 22 11 C22 12.65 22 14.3 22 16 C21.34 16 20.68 16 20 16 C20.020625 16.969375 20.04125 17.93875 20.0625 18.9375 C20 22 20 22 19 23 C13.53902599 23.43687792 9.80730425 22.63041176 5 20 C1.06822911 15.85570095 -1.29364118 12.14522053 -1.1875 6.375 C-1.17783203 5.21097656 -1.17783203 5.21097656 -1.16796875 4.0234375 C-1 2 -1 2 0 0 Z " fill="#D1C5F3" transform="translate(45,142)"/>
<path d="M0 0 C1.00777029 2.74737377 2.00641446 5.49749952 3 8.25 C3.28617188 9.02730469 3.57234375 9.80460937 3.8671875 10.60546875 C4.13789062 11.35957031 4.40859375 12.11367187 4.6875 12.890625 C5.06455078 13.92751465 5.06455078 13.92751465 5.44921875 14.98535156 C6 17 6 17 6 21 C4.68 21.33 3.36 21.66 2 22 C0.73694665 16.92523206 -0.27036084 12.27203646 0 7 C-1.41377341 9.63904371 -2.37240135 12.07120629 -3 15 C-2.34 15 -1.68 15 -1 15 C-1 15.66 -1 16.32 -1 17 C-1.66 17 -2.32 17 -3 17 C-3 17.66 -3 18.32 -3 19 C-2.34 19.33 -1.68 19.66 -1 20 C-1.66 20.99 -2.32 21.98 -3 23 C-3.6700834 20.87607494 -4.33596797 18.75082476 -5 16.625 C-5.37125 15.44164063 -5.7425 14.25828125 -6.125 13.0390625 C-7 10 -7 10 -7 8 C-6.34 8 -5.68 8 -5 8 C-5 5.69 -5 3.38 -5 1 C-3 0 -3 0 0 0 Z " fill="#E6CDF6" transform="translate(37,89)"/>
<path d="M0 0 C1.75 1.75 1.75 1.75 2.75 4.75 C3.41 5.08 4.07 5.41 4.75 5.75 C5.11190476 11.17857143 5.11190476 11.17857143 3.5625 13.625 C1.13241919 15.13332602 -0.44015752 15.11023622 -3.25 14.75 C-6.25617269 11.74382731 -5.84585316 8.92618402 -6.25 4.75 C-5.59 4.75 -4.93 4.75 -4.25 4.75 C-4.25 4.09 -4.25 3.43 -4.25 2.75 C-5.24 2.42 -6.23 2.09 -7.25 1.75 C-7.25 1.09 -7.25 0.43 -7.25 -0.25 C-4.19512728 -1.18343333 -2.85532056 -1.5862892 0 0 Z " fill="#84AAED" transform="translate(83.25,85.25)"/>
<path d="M0 0 C0.268125 0.5775 0.53625 1.155 0.8125 1.75 C1.204375 2.4925 1.59625 3.235 2 4 C2.37125 4.7425 2.7425 5.485 3.125 6.25 C5.05785761 8.40332136 5.05785761 8.40332136 8.9375 8.4375 C12.4510629 8.27573375 14.45208967 7.54791033 17 5 C17 6.65 17 8.3 17 10 C13.91190305 11.76462683 12.76687864 12 9 12 C8.67 12.66 8.34 13.32 8 14 C7.67 14.33 7.34 14.66 7 15 C7.99 15.33 8.98 15.66 10 16 C10.99 16.66 11.98 17.32 13 18 C8.70606672 18.6261986 5.35170427 18.88559935 1.62109375 16.44140625 C-0.34223246 14.69583715 -2.20490915 12.91737225 -4 11 C-3.34 10.34 -2.68 9.68 -2 9 C-1.34 9 -0.68 9 0 9 C0.66 8.67 1.32 8.34 2 8 C1.34 7.67 0.68 7.34 0 7 C0 4.69 0 2.38 0 0 Z " fill="#D6C7F3" transform="translate(111,147)"/>
<path d="M0 0 C11.55 0 23.1 0 35 0 C34.67 0.66 34.34 1.32 34 2 C32.09927734 1.98259766 32.09927734 1.98259766 30.16015625 1.96484375 C28.46093899 1.95545581 26.76172011 1.94635669 25.0625 1.9375 C24.23169922 1.92912109 23.40089844 1.92074219 22.54492188 1.91210938 C16.94773559 1.89033044 11.55266418 2.28840732 6 3 C5.96261719 4.02480469 5.92523438 5.04960937 5.88671875 6.10546875 C5.82102921 7.46618062 5.75458291 8.82685611 5.6875 10.1875 C5.66494141 10.86103516 5.64238281 11.53457031 5.61914062 12.22851562 C5.38404446 16.60985323 4.57557314 19.44391376 2 23 C1.01 22.67 0.02 22.34 -1 22 C-0.505 21.360625 -0.01 20.72125 0.5 20.0625 C3.82735641 13.26914733 1.78630322 7.14521289 0 0 Z " fill="#3888D0" transform="translate(73,137)"/>
<path d="M0 0 C0 1.98 0 3.96 0 6 C-4.95 6 -9.9 6 -15 6 C-15 4.02 -15 2.04 -15 0 C-13.25093341 -0.19601608 -11.50068154 -0.38147403 -9.75 -0.5625 C-8.77546875 -0.66691406 -7.8009375 -0.77132813 -6.796875 -0.87890625 C-4.2368648 -0.98974468 -2.41851841 -0.77738092 0 0 Z " fill="#F0D0F7" transform="translate(159,12)"/>
<path d="M0 0 C2.00720923 0.28674418 4.0085944 0.61866701 6 1 C5.01 1.33 4.02 1.66 3 2 C3.14107747 3.45880109 3.28802415 4.91703551 3.4375 6.375 C3.55931641 7.59316406 3.55931641 7.59316406 3.68359375 8.8359375 C3.89090114 11.04272805 3.89090114 11.04272805 5 13 C4.34 13 3.68 13 3 13 C3.22816406 13.67546875 3.45632812 14.3509375 3.69140625 15.046875 C3.97886719 15.93890625 4.26632813 16.8309375 4.5625 17.75 C4.85253906 18.63171875 5.14257812 19.5134375 5.44140625 20.421875 C6.01697435 23.07834316 5.89248371 24.47031106 5 27 C2.54970669 21.28264895 1.66733709 17.20970773 2 11 C1.34 11 0.68 11 0 11 C-1.16461426 7.50615721 -1.13568319 4.66344611 -1 1 C-0.67 0.67 -0.34 0.34 0 0 Z " fill="#B3B9EB" transform="translate(16,46)"/>
<path d="M0 0 C0.33 1.32 0.66 2.64 1 4 C-0.11375 4.2475 -1.2275 4.495 -2.375 4.75 C-6.04615198 5.61005339 -6.04615198 5.61005339 -7.4375 8.125 C-7.623125 8.74375 -7.80875 9.3625 -8 10 C-9.32 9.01 -10.64 8.02 -12 7 C-11.67 6.38125 -11.34 5.7625 -11 5.125 C-9.85806765 3.08981656 -9.85806765 3.08981656 -10 1 C-6.1496895 -1.56687367 -4.41430237 -0.83288724 0 0 Z " fill="#F0D0F8" transform="translate(141,16)"/>
<path d="M0 0 C1.67542976 0.28604898 3.34385343 0.61781233 5 1 C4.7834375 2.485 4.7834375 2.485 4.5625 4 C3.99074821 7.99409465 3.49180166 11.99532937 3 16 C1 15 1 15 0.11328125 12.85546875 C-0.15097656 11.97503906 -0.41523438 11.09460938 -0.6875 10.1875 C-0.95949219 9.31480469 -1.23148438 8.44210938 -1.51171875 7.54296875 C-2.01677942 4.91261278 -1.92209484 3.48686183 -1 1 C-0.67 0.67 -0.34 0.34 0 0 Z " fill="#F0CEF8" transform="translate(130,141)"/>
<path d="M0 0 C2.47378124 2.47378124 3.03138231 4.56174345 4.125 7.875 C4.47820313 8.92429687 4.83140625 9.97359375 5.1953125 11.0546875 C6 14 6 14 6 18 C4.68 18.33 3.36 18.66 2 19 C0.72813251 13.8898181 -0.12920665 9.29747254 0 4 C-0.33 3.34 -0.66 2.68 -1 2 C-0.67 1.34 -0.34 0.68 0 0 Z " fill="#D2C6F1" transform="translate(37,92)"/>
<path d="M0 0 C0.79481277 0.00424484 1.58962555 0.00848969 2.40852356 0.01286316 C4.94587146 0.02964945 7.48242363 0.06730051 10.01953125 0.10546875 C11.7402229 0.1205157 13.46092701 0.13420409 15.18164062 0.14648438 C19.39874387 0.17955268 23.61525267 0.2313338 27.83203125 0.29296875 C27.83203125 0.62296875 27.83203125 0.95296875 27.83203125 1.29296875 C26.24950562 1.33055298 26.24950562 1.33055298 24.63500977 1.36889648 C20.73432497 1.46280984 16.833825 1.56306909 12.93334961 1.6652832 C11.24263826 1.70869314 9.55188134 1.75036364 7.86108398 1.7902832 C5.43589519 1.84783969 3.0109371 1.91157524 0.5859375 1.9765625 C-0.55469398 2.00163124 -0.55469398 2.00163124 -1.71836853 2.02720642 C-5.23878906 1.81388143 -5.23878906 1.81388143 -8.16796875 3.29296875 C-8.21181322 4.95905862 -8.20764005 6.62677429 -8.16796875 8.29296875 C-8.16796875 9.28296875 -8.16796875 10.27296875 -8.16796875 11.29296875 C-9.15796875 10.63296875 -10.14796875 9.97296875 -11.16796875 9.29296875 C-11.54909659 6.30746736 -11.74489346 4.24588873 -10.1550293 1.61987305 C-7.00415756 -0.4841923 -3.6573367 -0.07335714 0 0 Z " fill="#669EE3" transform="translate(104.16796875,72.70703125)"/>
<path d="M0 0 C2.52480693 2.52480693 2.55738633 4.13823034 3.125 7.625 C3.29257812 8.62789062 3.46015625 9.63078125 3.6328125 10.6640625 C3.75398438 11.43492188 3.87515625 12.20578125 4 13 C3.34 13 2.68 13 2 13 C2.09539063 13.60328125 2.19078125 14.2065625 2.2890625 14.828125 C2.39992188 15.62734375 2.51078125 16.4265625 2.625 17.25 C2.74101562 18.03890625 2.85703125 18.8278125 2.9765625 19.640625 C3.00368639 22.37109687 2.44098867 23.7061813 1 26 C0.34 26.66 -0.32 27.32 -1 28 C-1.33 26.02 -1.66 24.04 -2 22 C-1.34 22 -0.68 22 0 22 C0 14.74 0 7.48 0 0 Z " fill="#E0CBF3" transform="translate(27,60)"/>
<path d="M0 0 C0 2.97 0 5.94 0 9 C-0.99 9.495 -0.99 9.495 -2 10 C-2.33 10.99 -2.66 11.98 -3 13 C-3.28875 12.38125 -3.5775 11.7625 -3.875 11.125 C-4.93720042 8.86674235 -4.93720042 8.86674235 -7 7 C-6.875 4.5 -6.875 4.5 -6 2 C-3.84898936 0.54286376 -2.59713506 0 0 0 Z " fill="#EECFF7" transform="translate(52,143)"/>
<path d="M0 0 C0.33 0 0.66 0 1 0 C1 1.65 1 3.3 1 5 C0.34 5 -0.32 5 -1 5 C-0.979375 5.969375 -0.95875 6.93875 -0.9375 7.9375 C-1 11 -1 11 -2 12 C-4.33297433 12.04092937 -6.66705225 12.04241723 -9 12 C-8.01 11.67 -7.02 11.34 -6 11 C-4.62665383 8.71108972 -3.84749184 6.54247553 -3 4 C-5.64 4 -8.28 4 -11 4 C-11.33 3.01 -11.66 2.02 -12 1 C-10.95199219 1.14308594 -10.95199219 1.14308594 -9.8828125 1.2890625 C-8.97273438 1.39992187 -8.06265625 1.51078125 -7.125 1.625 C-5.76761719 1.79902344 -5.76761719 1.79902344 -4.3828125 1.9765625 C-3.59648438 1.98429688 -2.81015625 1.99203125 -2 2 C-1.34 1.34 -0.68 0.68 0 0 Z " fill="#BBBDED" transform="translate(66,153)"/>
<path d="M0 0 C0.33 0 0.66 0 1 0 C1 2.97 1 5.94 1 9 C-1.97 8.505 -1.97 8.505 -5 8 C-5 8.66 -5 9.32 -5 10 C-4.34 10 -3.68 10 -3 10 C-3 10.66 -3 11.32 -3 12 C-4.99954746 12.04254356 -7.00041636 12.04080783 -9 12 C-9.33 11.67 -9.66 11.34 -10 11 C-11.32594105 10.63837971 -12.65938457 10.30271961 -14 10 C-9.37234081 7.45478745 -5.1103144 6.1454153 0 5 C-0.33 4.01 -0.66 3.02 -1 2 C-0.67 1.34 -0.34 0.68 0 0 Z " fill="#F0CEF9" transform="translate(128,152)"/>
<path d="M0 0 C2.475 0.99 2.475 0.99 5 2 C5 2.66 5 3.32 5 4 C5.66 4 6.32 4 7 4 C7.33 2.68 7.66 1.36 8 0 C8.66 0 9.32 0 10 0 C9.34 2.64 8.68 5.28 8 8 C7.34 7.67 6.68 7.34 6 7 C5.67 7.66 5.34 8.32 5 9 C4.34 8.67 3.68 8.34 3 8 C2.375 5.4375 2.375 5.4375 2 3 C0.68 4.65 -0.64 6.3 -2 8 C-1.47731534 5.23723823 -0.89130413 2.6739124 0 0 Z " fill="#D7C8F4" transform="translate(150,66)"/>
<path d="M0 0 C2.05395559 3.08093338 2.22502666 3.56743692 2.0625 7 C1.93936823 9.82667719 2.07450994 11.22352981 3 14 C2.34 14.66 1.68 15.32 1 16 C-1.25414782 12.61877827 -1.24544447 11.3935272 -1.1875 7.4375 C-1.18105469 6.46683594 -1.17460938 5.49617187 -1.16796875 4.49609375 C-1 2 -1 2 0 0 Z " fill="#C1C0EE" transform="translate(105,141)"/>
<path d="M0 0 C-1.3125 2 -1.3125 2 -3 4 C-3.99 4 -4.98 4 -6 4 C-6.33 4.99 -6.66 5.98 -7 7 C-7.99 7.495 -7.99 7.495 -9 8 C-9.66 8.99 -10.32 9.98 -11 11 C-11.46707789 6.98313013 -11.32150834 5.43498188 -8.875 2.125 C-5.56501812 -0.32150834 -4.01686987 -0.46707789 0 0 Z " fill="#187BC9" transform="translate(123,140)"/>
<path d="M0 0 C2 1.1875 2 1.1875 4 3 C4.25 5.6875 4.25 5.6875 4 8 C3.01 8.33 2.02 8.66 1 9 C0.26676204 11.01508358 0.26676204 11.01508358 0 13 C-1.33106125 9.00681626 -1.13647721 5.16255487 -1 1 C-0.67 0.67 -0.34 0.34 0 0 Z " fill="#F4CFF7" transform="translate(163,27)"/>
<path d="M0 0 C2.64 0 5.28 0 8 0 C7.38722388 2.96175123 6.74627478 4.38058783 5 7 C3.68 7 2.36 7 1 7 C1 5.68 1 4.36 1 3 C0.67 2.01 0.34 1.02 0 0 Z " fill="#E8CDF7" transform="translate(55,157)"/>
<path d="M0 0 C0.68707555 2.49064888 1 4.37886292 1 7 C0.34 7 -0.32 7 -1 7 C-1 7.66 -1 8.32 -1 9 C-0.34 9 0.32 9 1 9 C1 9.66 1 10.32 1 11 C2.65 11.33 4.3 11.66 6 12 C5.67 12.66 5.34 13.32 5 14 C3.02 14 1.04 14 -1 14 C-2.29456734 11.41086532 -1.93282201 9.86191275 -1.625 7 C-1.53476563 6.113125 -1.44453125 5.22625 -1.3515625 4.3125 C-1 2 -1 2 0 0 Z " fill="#CBC3F1" transform="translate(123,26)"/>
<path d="M0 0 C2.6108313 2.6108313 2.47615339 4.17547199 2.8125 7.8125 C2.97685547 9.36904297 2.97685547 9.36904297 3.14453125 10.95703125 C2.97813101 14.46043086 2.01726489 16.17999921 0 19 C-0.99 18.67 -1.98 18.34 -3 18 C-2.50886719 17.31550781 -2.01773438 16.63101563 -1.51171875 15.92578125 C0.30470752 12.41026891 0.30658238 10.11721858 0.1875 6.1875 C0.16042969 5.02605469 0.13335937 3.86460937 0.10546875 2.66796875 C0.07066406 1.78753906 0.03585938 0.90710938 0 0 Z " fill="#488ED3" transform="translate(75,141)"/>
<path d="M0 0 C2 3 2 3 2 7 C2.99 7 3.98 7 5 7 C6.20535714 15.03571429 6.20535714 15.03571429 5 19 C2.12059087 12.5849443 0.4535179 7.02952752 0 0 Z " fill="#9DB1ED" transform="translate(31,70)"/>
<path d="M0 0 C1.32 1.65 2.64 3.3 4 5 C2.8553125 4.938125 2.8553125 4.938125 1.6875 4.875 C-1.22718416 4.77919176 -1.22718416 4.77919176 -4 7 C-5.32 5.68 -6.64 4.36 -8 3 C-7.67 2.34 -7.34 1.68 -7 1 C-6.01 1.33 -5.02 1.66 -4 2 C-3.01 2 -2.02 2 -1 2 C-0.67 1.34 -0.34 0.68 0 0 Z " fill="#D1C3F1" transform="translate(131,137)"/>
<path d="M0 0 C0.99 0.495 0.99 0.495 2 1 C2 2.32 2 3.64 2 5 C2.66 4.67 3.32 4.34 4 4 C4 6.64 4 9.28 4 12 C2.68 12.33 1.36 12.66 0 13 C0 8.71 0 4.42 0 0 Z " fill="#EDD1FA" transform="translate(19,48)"/>
<path d="M0 0 C1.44977894 2.34112451 2.04314411 3.5796929 1.7578125 6.359375 C1.54898438 7.14828125 1.34015625 7.9371875 1.125 8.75 C0.92132813 9.54921875 0.71765625 10.3484375 0.5078125 11.171875 C0.34023437 11.77515625 0.17265625 12.3784375 0 13 C-0.33 13 -0.66 13 -1 13 C-1.41694996 11.40119187 -1.80790856 9.79558739 -2.1875 8.1875 C-2.40792969 7.29417969 -2.62835938 6.40085937 -2.85546875 5.48046875 C-3 3 -3 3 -1.55078125 1.17578125 C-1.03902344 0.78777344 -0.52726563 0.39976563 0 0 Z " fill="#F0CFF5" transform="translate(152,68)"/>
<path d="M0 0 C0.66 0.99 1.32 1.98 2 3 C0.1875 6 0.1875 6 -2 9 C-2.99 9 -3.98 9 -5 9 C-5 4.61031544 -2.87194899 3.23094261 0 0 Z " fill="#CBC3F2" transform="translate(130,17)"/>
<path d="M0 0 C-0.66 0 -1.32 0 -2 0 C-2.66 1.32 -3.32 2.64 -4 4 C-4.7425 3.95875 -5.485 3.9175 -6.25 3.875 C-9.08758952 4.00398134 -10.58773938 4.57051222 -13 6 C-5.46629213 -1.95224719 -5.46629213 -1.95224719 0 0 Z " fill="#B8BAEE" transform="translate(144,11)"/>
<path d="M0 0 C2.76223278 2.76223278 2.57856291 5.20706617 3 9 C1.68 9.99 0.36 10.98 -1 12 C-1.66 11.67 -2.32 11.34 -3 11 C-2.690625 10.484375 -2.38125 9.96875 -2.0625 9.4375 C-0.70940713 6.33334577 -0.38640576 3.34884993 0 0 Z " fill="#187CCA" transform="translate(135,76)"/>
<path d="M0 0 C0.33 0 0.66 0 1 0 C1.22577402 5.4185766 0.46670113 9.77487721 -1 15 C-3.1519437 11.77208445 -3.20086443 10.71599191 -3 7 C-2.67 7 -2.34 7 -2 7 C-1.34 4.69 -0.68 2.38 0 0 Z " fill="#D9C6F4" transform="translate(166,37)"/>
<path d="M0 0 C1 3 1 3 1 5 C-2.01324195 6.50662097 -4.68286377 6.17770373 -8 6 C-8.66 5.34 -9.32 4.68 -10 4 C-8.906875 3.896875 -7.81375 3.79375 -6.6875 3.6875 C-3.14440371 3.02692273 -2.06756277 2.7972908 0 0 Z " fill="#BDBEEE" transform="translate(127,152)"/>
<path d="M0 0 C0.33 0 0.66 0 1 0 C1.25 6.625 1.25 6.625 -1 10 C-2.65 9.67 -4.3 9.34 -6 9 C-6 8.34 -6 7.68 -6 7 C-4.7934375 6.6596875 -4.7934375 6.6596875 -3.5625 6.3125 C-2.716875 5.879375 -1.87125 5.44625 -1 5 C-0.10613836 2.45224694 -0.10613836 2.45224694 0 0 Z " fill="#2F83CC" transform="translate(138,130)"/>
<path d="M0 0 C6.70459519 5.0940919 6.70459519 5.0940919 7.9375 8.875 C7.958125 9.57625 7.97875 10.2775 8 11 C5.24616077 9.62308038 4.48516899 7.63279958 3 5 C2.01 5.495 2.01 5.495 1 6 C0.01 5.34 -0.98 4.68 -2 4 C-1.34 2.68 -0.68 1.36 0 0 Z " fill="#68A0E5" transform="translate(79,80)"/>
<path d="M0 0 C0.33 0 0.66 0 1 0 C1 2.66666667 1 5.33333333 1 8 C0.01 8.33 -0.98 8.66 -2 9 C-2.66 9.66 -3.32 10.32 -4 11 C-3.56534471 6.47958496 -3.21201178 3.3458456 0 0 Z " fill="#1E7ECA" transform="translate(135,26)"/>
<path d="M0 0 C0.99 0.66 1.98 1.32 3 2 C2.01 2.33 1.02 2.66 0 3 C-0.70151152 4.3153341 -1.36525925 5.65117592 -2 7 C-2.99 7.99 -3.98 8.98 -5 10 C-4.67 7.03 -4.34 4.06 -4 1 C-2.02 1.495 -2.02 1.495 0 2 C0 1.34 0 0.68 0 0 Z " fill="#DAC8F4" transform="translate(137,20)"/>
<path d="M0 0 C1.98 0 3.96 0 6 0 C6 3 6 3 5 5 C2.4375 5.625 2.4375 5.625 0 6 C0 4.02 0 2.04 0 0 Z " fill="#DDC7F4" transform="translate(42,129)"/>
<path d="M0 0 C1.77503906 0.03480469 1.77503906 0.03480469 3.5859375 0.0703125 C5.36871094 0.09738281 5.36871094 0.09738281 7.1875 0.125 C8.10273438 0.14820312 9.01796875 0.17140625 9.9609375 0.1953125 C10.2909375 0.8553125 10.6209375 1.5153125 10.9609375 2.1953125 C10.3009375 2.8553125 9.6409375 3.5153125 8.9609375 4.1953125 C7.9709375 3.5353125 6.9809375 2.8753125 5.9609375 2.1953125 C3.21575429 1.95343599 3.21575429 1.95343599 0.2734375 2.0703125 C-0.72042969 2.08835937 -1.71429688 2.10640625 -2.73828125 2.125 C-3.49753906 2.14820312 -4.25679687 2.17140625 -5.0390625 2.1953125 C-3.0390625 0.1953125 -3.0390625 0.1953125 0 0 Z " fill="#A3B2E8" transform="translate(149.0390625,17.8046875)"/>
<path d="M0 0 C0.33 0.66 0.66 1.32 1 2 C0.34 2 -0.32 2 -1 2 C-1 3.65 -1 5.3 -1 7 C-2.98 7.99 -2.98 7.99 -5 9 C-5.33 7.68 -5.66 6.36 -6 5 C-4.02 3.35 -2.04 1.7 0 0 Z " fill="#0272C0" transform="translate(119,143)"/>
<path d="M0 0 C0.99 0 1.98 0 3 0 C1.25 7.75 1.25 7.75 -1 10 C-2.35439668 7.29120665 -2.06501451 4.99066732 -2 2 C-1.34 2.66 -0.68 3.32 0 4 C0 2.68 0 1.36 0 0 Z " fill="#1C7ACB" transform="translate(156,35)"/>
<path d="M0 0 C4.95 0.99 4.95 0.99 10 2 C10 2.33 10 2.66 10 3 C8.6078125 3.433125 8.6078125 3.433125 7.1875 3.875 C3.90208333 4.8875 3.90208333 4.8875 1 7 C0.67 6.01 0.34 5.02 0 4 C0.66 4 1.32 4 2 4 C2 3.34 2 2.68 2 2 C1.34 2 0.68 2 0 2 C0 1.34 0 0.68 0 0 Z " fill="#D6C7F2" transform="translate(112,137)"/>
<path d="M0 0 C0.33 0 0.66 0 1 0 C2.125 6.75 2.125 6.75 1 9 C-0.32 9.33 -1.64 9.66 -3 10 C-2.01 6.7 -1.02 3.4 0 0 Z " fill="#D1C5F2" transform="translate(145,83)"/>
<path d="M0 0 C1.18771723 3.42943519 0.80226223 5.37784675 -0.4375 8.75 C-0.86869141 9.94882812 -0.86869141 9.94882812 -1.30859375 11.171875 C-1.65083984 12.07679687 -1.65083984 12.07679687 -2 13 C-2.33 13 -2.66 13 -3 13 C-3.31563182 7.73946963 -2.66590937 4.55426184 0 0 Z " fill="#ABB8F0" transform="translate(155,47)"/>
<path d="M0 0 C2 1 2 1 3.1875 3.3125 C4.03624754 6.11989571 3.99928333 7.301935 3 10 C3 9.34 3 8.68 3 8 C2.34 8 1.68 8 1 8 C1 7.01 1 6.02 1 5 C0.34 4.67 -0.32 4.34 -1 4 C-0.67 2.68 -0.34 1.36 0 0 Z " fill="#C8C3F5" transform="translate(23,46)"/>
<path d="M0 0 C0.33 0 0.66 0 1 0 C1.3125 3.3125 1.3125 3.3125 1 7 C-1.5 8.9375 -1.5 8.9375 -4 10 C-3.67 8.35 -3.34 6.7 -3 5 C-2.01 5 -1.02 5 0 5 C0 3.35 0 1.7 0 0 Z " fill="#247ECD" transform="translate(67,146)"/>
<path d="M0 0 C0.33 0 0.66 0 1 0 C1 3.96 1 7.92 1 12 C0.01 11.01 -0.98 10.02 -2 9 C-1.85546875 6.73828125 -1.85546875 6.73828125 -1.1875 4.3125 C-0.97480469 3.50425781 -0.76210937 2.69601563 -0.54296875 1.86328125 C-0.36378906 1.24839844 -0.18460938 0.63351563 0 0 Z " fill="#CBC4EF" transform="translate(135,143)"/>
<path d="M0 0 C2.5 1 2.5 1 5 3 C5.46837899 5.79374292 5.23424505 8.14221036 5 11 C4.67 11 4.34 11 4 11 C3.896875 10.05125 3.79375 9.1025 3.6875 8.125 C3.31460705 4.70892499 3.31460705 4.70892499 0 3 C0 2.01 0 1.02 0 0 Z " fill="#2C81CB" transform="translate(123,141)"/>
<path d="M0 0 C1.12377697 3.30435084 0.89554742 5.0506862 -0.4375 8.25 C-0.72496094 8.95640625 -1.01242188 9.6628125 -1.30859375 10.390625 C-1.53675781 10.92171875 -1.76492187 11.4528125 -2 12 C-2.66 11.34 -3.32 10.68 -4 10 C-3.625 7.875 -3.625 7.875 -3 6 C-2.34 6 -1.68 6 -1 6 C-0.67 4.02 -0.34 2.04 0 0 Z " fill="#3C89D3" transform="translate(150,62)"/>
<path d="M0 0 C1.98 1.65 3.96 3.3 6 5 C4 6 4 6 0 6 C0 4.02 0 2.04 0 0 Z " fill="#207FCC" transform="translate(104,155)"/>
<path d="M0 0 C-0.33 2.31 -0.66 4.62 -1 7 C-1.66 6.67 -2.32 6.34 -3 6 C-2.67 5.01 -2.34 4.02 -2 3 C-3.65 2.67 -5.3 2.34 -7 2 C-6.01 1.67 -5.02 1.34 -4 1 C-2 0 -2 0 0 0 Z " fill="#C5C2F1" transform="translate(50,134)"/>
<path d="M0 0 C0.66 0 1.32 0 2 0 C1.34 2.97 0.68 5.94 0 9 C-0.33 9 -0.66 9 -1 9 C-1.625 5.625 -1.625 5.625 -2 2 C-1.34 1.34 -0.68 0.68 0 0 Z " fill="#187BCB" transform="translate(140,92)"/>
<path d="M0 0 C0.75 1.6875 0.75 1.6875 1 4 C-0.9375 6.75 -0.9375 6.75 -3 9 C-3.36923077 3.46153846 -3.36923077 3.46153846 -1.5 1.125 C-1.005 0.75375 -0.51 0.3825 0 0 Z " fill="#448DD2" transform="translate(115,142)"/>
</svg>
